G04 #@! TF.GenerationSoftware,KiCad,Pcbnew,(6.0.10)*
G04 #@! TF.CreationDate,2024-05-21T15:48:30-04:00*
G04 #@! TF.ProjectId,verycold,76657279-636f-46c6-942e-6b696361645f,rev?*
G04 #@! TF.SameCoordinates,Original*
G04 #@! TF.FileFunction,Legend,Top*
G04 #@! TF.FilePolarity,Positive*
%FSLAX46Y46*%
G04 Gerber Fmt 4.6, Leading zero omitted, Abs format (unit mm)*
G04 Created by KiCad (PCBNEW (6.0.10)) date 2024-05-21 15:48:30*
%MOMM*%
%LPD*%
G01*
G04 APERTURE LIST*
%ADD10C,0.300000*%
%ADD11C,0.150000*%
%ADD12C,0.120000*%
%ADD13C,1.524000*%
%ADD14C,1.600000*%
%ADD15O,1.600000X1.600000*%
%ADD16C,2.000000*%
%ADD17O,1.700000X1.700000*%
%ADD18R,1.700000X1.700000*%
%ADD19R,2.400000X1.600000*%
%ADD20O,2.400000X1.600000*%
G04 APERTURE END LIST*
D10*
X47752857Y-123781428D02*
X47824285Y-123710000D01*
X47967142Y-123638571D01*
X48324285Y-123638571D01*
X48467142Y-123710000D01*
X48538571Y-123781428D01*
X48610000Y-123924285D01*
X48610000Y-124067142D01*
X48538571Y-124281428D01*
X47681428Y-125138571D01*
X48610000Y-125138571D01*
X49538571Y-123638571D02*
X49681428Y-123638571D01*
X49824285Y-123710000D01*
X49895714Y-123781428D01*
X49967142Y-123924285D01*
X50038571Y-124210000D01*
X50038571Y-124567142D01*
X49967142Y-124852857D01*
X49895714Y-124995714D01*
X49824285Y-125067142D01*
X49681428Y-125138571D01*
X49538571Y-125138571D01*
X49395714Y-125067142D01*
X49324285Y-124995714D01*
X49252857Y-124852857D01*
X49181428Y-124567142D01*
X49181428Y-124210000D01*
X49252857Y-123924285D01*
X49324285Y-123781428D01*
X49395714Y-123710000D01*
X49538571Y-123638571D01*
X50610000Y-123781428D02*
X50681428Y-123710000D01*
X50824285Y-123638571D01*
X51181428Y-123638571D01*
X51324285Y-123710000D01*
X51395714Y-123781428D01*
X51467142Y-123924285D01*
X51467142Y-124067142D01*
X51395714Y-124281428D01*
X50538571Y-125138571D01*
X51467142Y-125138571D01*
X52824285Y-123638571D02*
X52110000Y-123638571D01*
X52038571Y-124352857D01*
X52110000Y-124281428D01*
X52252857Y-124210000D01*
X52610000Y-124210000D01*
X52752857Y-124281428D01*
X52824285Y-124352857D01*
X52895714Y-124495714D01*
X52895714Y-124852857D01*
X52824285Y-124995714D01*
X52752857Y-125067142D01*
X52610000Y-125138571D01*
X52252857Y-125138571D01*
X52110000Y-125067142D01*
X52038571Y-124995714D01*
X53395714Y-124138571D02*
X53752857Y-125138571D01*
X54110000Y-124138571D01*
X54538571Y-124138571D02*
X54895714Y-125138571D01*
X55252857Y-124138571D01*
X56395714Y-125067142D02*
X56252857Y-125138571D01*
X55967142Y-125138571D01*
X55824285Y-125067142D01*
X55752857Y-124924285D01*
X55752857Y-124352857D01*
X55824285Y-124210000D01*
X55967142Y-124138571D01*
X56252857Y-124138571D01*
X56395714Y-124210000D01*
X56467142Y-124352857D01*
X56467142Y-124495714D01*
X55752857Y-124638571D01*
X57110000Y-125138571D02*
X57110000Y-124138571D01*
X57110000Y-124281428D02*
X57181428Y-124210000D01*
X57324285Y-124138571D01*
X57538571Y-124138571D01*
X57681428Y-124210000D01*
X57752857Y-124352857D01*
X57752857Y-125138571D01*
X57752857Y-124352857D02*
X57824285Y-124210000D01*
X57967142Y-124138571D01*
X58181428Y-124138571D01*
X58324285Y-124210000D01*
X58395714Y-124352857D01*
X58395714Y-125138571D01*
X59752857Y-124138571D02*
X59752857Y-125138571D01*
X59110000Y-124138571D02*
X59110000Y-124924285D01*
X59181428Y-125067142D01*
X59324285Y-125138571D01*
X59538571Y-125138571D01*
X59681428Y-125067142D01*
X59752857Y-124995714D01*
X60467142Y-125138571D02*
X60467142Y-124138571D01*
X60467142Y-124424285D02*
X60538571Y-124281428D01*
X60610000Y-124210000D01*
X60752857Y-124138571D01*
X60895714Y-124138571D01*
X61395714Y-125138571D02*
X61395714Y-124138571D01*
X61395714Y-123638571D02*
X61324285Y-123710000D01*
X61395714Y-123781428D01*
X61467142Y-123710000D01*
X61395714Y-123638571D01*
X61395714Y-123781428D01*
D11*
X73326666Y-61182380D02*
X73326666Y-61896666D01*
X73279047Y-62039523D01*
X73183809Y-62134761D01*
X73040952Y-62182380D01*
X72945714Y-62182380D01*
X74326666Y-62182380D02*
X73755238Y-62182380D01*
X74040952Y-62182380D02*
X74040952Y-61182380D01*
X73945714Y-61325238D01*
X73850476Y-61420476D01*
X73755238Y-61468095D01*
X70953333Y-90792380D02*
X70620000Y-90316190D01*
X70381904Y-90792380D02*
X70381904Y-89792380D01*
X70762857Y-89792380D01*
X70858095Y-89840000D01*
X70905714Y-89887619D01*
X70953333Y-89982857D01*
X70953333Y-90125714D01*
X70905714Y-90220952D01*
X70858095Y-90268571D01*
X70762857Y-90316190D01*
X70381904Y-90316190D01*
X71905714Y-90792380D02*
X71334285Y-90792380D01*
X71620000Y-90792380D02*
X71620000Y-89792380D01*
X71524761Y-89935238D01*
X71429523Y-90030476D01*
X71334285Y-90078095D01*
X233616666Y-57860325D02*
X233759523Y-57907944D01*
X233997619Y-57907944D01*
X234092857Y-57860325D01*
X234140476Y-57812706D01*
X234188095Y-57717468D01*
X234188095Y-57622230D01*
X234140476Y-57526992D01*
X234092857Y-57479373D01*
X233997619Y-57431754D01*
X233807142Y-57384135D01*
X233711904Y-57336516D01*
X233664285Y-57288897D01*
X233616666Y-57193659D01*
X233616666Y-57098421D01*
X233664285Y-57003183D01*
X233711904Y-56955564D01*
X233807142Y-56907944D01*
X234045238Y-56907944D01*
X234188095Y-56955564D01*
X234521428Y-56907944D02*
X234759523Y-57907944D01*
X234950000Y-57193659D01*
X235140476Y-57907944D01*
X235378571Y-56907944D01*
X235711904Y-57003183D02*
X235759523Y-56955564D01*
X235854761Y-56907944D01*
X236092857Y-56907944D01*
X236188095Y-56955564D01*
X236235714Y-57003183D01*
X236283333Y-57098421D01*
X236283333Y-57193659D01*
X236235714Y-57336516D01*
X235664285Y-57907944D01*
X236283333Y-57907944D01*
X135871666Y-119577380D02*
X135871666Y-118577380D01*
X136205000Y-119291666D01*
X136538333Y-118577380D01*
X136538333Y-119577380D01*
X137585952Y-119482142D02*
X137538333Y-119529761D01*
X137395476Y-119577380D01*
X137300238Y-119577380D01*
X137157380Y-119529761D01*
X137062142Y-119434523D01*
X137014523Y-119339285D01*
X136966904Y-119148809D01*
X136966904Y-119005952D01*
X137014523Y-118815476D01*
X137062142Y-118720238D01*
X137157380Y-118625000D01*
X137300238Y-118577380D01*
X137395476Y-118577380D01*
X137538333Y-118625000D01*
X137585952Y-118672619D01*
X138014523Y-118577380D02*
X138014523Y-119386904D01*
X138062142Y-119482142D01*
X138109761Y-119529761D01*
X138205000Y-119577380D01*
X138395476Y-119577380D01*
X138490714Y-119529761D01*
X138538333Y-119482142D01*
X138585952Y-119386904D01*
X138585952Y-118577380D01*
X139585952Y-119577380D02*
X139014523Y-119577380D01*
X139300238Y-119577380D02*
X139300238Y-118577380D01*
X139205000Y-118720238D01*
X139109761Y-118815476D01*
X139014523Y-118863095D01*
X208962230Y-57860325D02*
X209105087Y-57907944D01*
X209343183Y-57907944D01*
X209438421Y-57860325D01*
X209486040Y-57812706D01*
X209533659Y-57717468D01*
X209533659Y-57622230D01*
X209486040Y-57526992D01*
X209438421Y-57479373D01*
X209343183Y-57431754D01*
X209152706Y-57384135D01*
X209057468Y-57336516D01*
X209009849Y-57288897D01*
X208962230Y-57193659D01*
X208962230Y-57098421D01*
X209009849Y-57003183D01*
X209057468Y-56955564D01*
X209152706Y-56907944D01*
X209390802Y-56907944D01*
X209533659Y-56955564D01*
X209866992Y-56907944D02*
X210105087Y-57907944D01*
X210295564Y-57193659D01*
X210486040Y-57907944D01*
X210724135Y-56907944D01*
X211628897Y-57907944D02*
X211057468Y-57907944D01*
X211343183Y-57907944D02*
X211343183Y-56907944D01*
X211247944Y-57050802D01*
X211152706Y-57146040D01*
X211057468Y-57193659D01*
X98298095Y-43902380D02*
X98298095Y-44711904D01*
X98345714Y-44807142D01*
X98393333Y-44854761D01*
X98488571Y-44902380D01*
X98679047Y-44902380D01*
X98774285Y-44854761D01*
X98821904Y-44807142D01*
X98869523Y-44711904D01*
X98869523Y-43902380D01*
X99869523Y-44902380D02*
X99298095Y-44902380D01*
X99583809Y-44902380D02*
X99583809Y-43902380D01*
X99488571Y-44045238D01*
X99393333Y-44140476D01*
X99298095Y-44188095D01*
X142421428Y-47050476D02*
X144235714Y-47655238D01*
X147259523Y-47655238D01*
X148469047Y-47050476D01*
X149073809Y-46445714D01*
X149678571Y-45236190D01*
X149678571Y-44026666D01*
X149073809Y-42817142D01*
X148469047Y-42212380D01*
X147259523Y-41607619D01*
X144840476Y-41002857D01*
X143630952Y-40398095D01*
X143026190Y-39793333D01*
X142421428Y-38583809D01*
X142421428Y-37374285D01*
X143026190Y-36164761D01*
X143630952Y-35560000D01*
X144840476Y-34955238D01*
X147864285Y-34955238D01*
X149678571Y-35560000D01*
X155121428Y-47655238D02*
X155121428Y-34955238D01*
X158145238Y-34955238D01*
X159959523Y-35560000D01*
X161169047Y-36769523D01*
X161773809Y-37979047D01*
X162378571Y-40398095D01*
X162378571Y-42212380D01*
X161773809Y-44631428D01*
X161169047Y-45840952D01*
X159959523Y-47050476D01*
X158145238Y-47655238D01*
X155121428Y-47655238D01*
X225726666Y-98012380D02*
X225726666Y-98726666D01*
X225679047Y-98869523D01*
X225583809Y-98964761D01*
X225440952Y-99012380D01*
X225345714Y-99012380D01*
X226155238Y-98107619D02*
X226202857Y-98060000D01*
X226298095Y-98012380D01*
X226536190Y-98012380D01*
X226631428Y-98060000D01*
X226679047Y-98107619D01*
X226726666Y-98202857D01*
X226726666Y-98298095D01*
X226679047Y-98440952D01*
X226107619Y-99012380D01*
X226726666Y-99012380D01*
X182103095Y-96197380D02*
X182103095Y-97006904D01*
X182150714Y-97102142D01*
X182198333Y-97149761D01*
X182293571Y-97197380D01*
X182484047Y-97197380D01*
X182579285Y-97149761D01*
X182626904Y-97102142D01*
X182674523Y-97006904D01*
X182674523Y-96197380D01*
X183103095Y-96292619D02*
X183150714Y-96245000D01*
X183245952Y-96197380D01*
X183484047Y-96197380D01*
X183579285Y-96245000D01*
X183626904Y-96292619D01*
X183674523Y-96387857D01*
X183674523Y-96483095D01*
X183626904Y-96625952D01*
X183055476Y-97197380D01*
X183674523Y-97197380D01*
D12*
X92710000Y-43180000D02*
X54610000Y-43180000D01*
X54610000Y-43180000D02*
X54610000Y-81280000D01*
X54610000Y-81280000D02*
X92710000Y-81280000D01*
X92710000Y-81280000D02*
X92710000Y-43180000D01*
X83820000Y-62230000D02*
G75*
G03*
X83820000Y-62230000I-10160000J0D01*
G01*
X87160285Y-62230000D02*
G75*
G03*
X87160285Y-62230000I-13500285J0D01*
G01*
X67850000Y-94080000D02*
X74390000Y-94080000D01*
X64540000Y-92710000D02*
X67850000Y-92710000D01*
X74390000Y-91340000D02*
X67850000Y-91340000D01*
X67850000Y-91340000D02*
X67850000Y-94080000D01*
X74390000Y-94080000D02*
X74390000Y-91340000D01*
X77700000Y-92710000D02*
X74390000Y-92710000D01*
X232700000Y-64955564D02*
X237200000Y-64955564D01*
X237200000Y-58455564D02*
X232700000Y-58455564D01*
X238450000Y-62455564D02*
X238450000Y-60955564D01*
X231450000Y-60955564D02*
X231450000Y-62455564D01*
X108205000Y-87565000D02*
G75*
G03*
X105145000Y-90625000I0J-3060000D01*
G01*
X105145000Y-114625000D02*
G75*
G03*
X108205000Y-117685000I3059999J-1D01*
G01*
X167205000Y-117685000D02*
G75*
G03*
X170265000Y-114625000I1J3059999D01*
G01*
X170265000Y-90625000D02*
G75*
G03*
X167205000Y-87565000I-3060000J0D01*
G01*
X155145000Y-87565000D02*
X150665000Y-87565000D01*
X163165000Y-116725000D02*
X163165000Y-111525000D01*
X112245000Y-112855000D02*
X112245000Y-111525000D01*
X114845000Y-111525000D02*
X163165000Y-111525000D01*
X123315000Y-86865000D02*
X111895000Y-86865000D01*
X167205000Y-87565000D02*
X163265000Y-87565000D01*
X171465000Y-111185000D02*
X171465000Y-94065000D01*
X111895000Y-87565000D02*
X108205000Y-87565000D01*
X167205000Y-117685000D02*
X108205000Y-117685000D01*
X163265000Y-85765000D02*
X155145000Y-85765000D01*
X105145000Y-114625000D02*
X105145000Y-90625000D01*
X150665000Y-87565000D02*
X150665000Y-85765000D01*
X171465000Y-94065000D02*
X170265000Y-94065000D01*
X112245000Y-114125000D02*
X114845000Y-114125000D01*
X123315000Y-87565000D02*
X123315000Y-86865000D01*
X112245000Y-116725000D02*
X163165000Y-116725000D01*
X111895000Y-86865000D02*
X111895000Y-87565000D01*
X170265000Y-111185000D02*
X171465000Y-111185000D01*
X142545000Y-87565000D02*
X123315000Y-87565000D01*
X170265000Y-94065000D02*
X170265000Y-90625000D01*
X170265000Y-111185000D02*
X170265000Y-114625000D01*
X112245000Y-116725000D02*
X112245000Y-114125000D01*
X150665000Y-85765000D02*
X142545000Y-85765000D01*
X114845000Y-114125000D02*
X114845000Y-111525000D01*
X142545000Y-85765000D02*
X142545000Y-87565000D01*
X112245000Y-111525000D02*
X113575000Y-111525000D01*
X163265000Y-87565000D02*
X163265000Y-85765000D01*
X155145000Y-85765000D02*
X155145000Y-87565000D01*
X212545564Y-58455564D02*
X208045564Y-58455564D01*
X206795564Y-60955564D02*
X206795564Y-62455564D01*
X213795564Y-62455564D02*
X213795564Y-60955564D01*
X208045564Y-64955564D02*
X212545564Y-64955564D01*
X190500000Y-31750000D02*
X104140000Y-31750000D01*
X104140000Y-31750000D02*
X104140000Y-80010000D01*
X104140000Y-80010000D02*
X190500000Y-80010000D01*
X190500000Y-80010000D02*
X190500000Y-31750000D01*
X165100000Y-31750000D02*
X137160000Y-31750000D01*
X137160000Y-31750000D02*
X137160000Y-49530000D01*
X137160000Y-49530000D02*
X165100000Y-49530000D01*
X165100000Y-49530000D02*
X165100000Y-31750000D01*
X245110000Y-80010000D02*
X207010000Y-80010000D01*
X207010000Y-80010000D02*
X207010000Y-118110000D01*
X207010000Y-118110000D02*
X245110000Y-118110000D01*
X245110000Y-118110000D02*
X245110000Y-80010000D01*
X239560285Y-99060000D02*
G75*
G03*
X239560285Y-99060000I-13500285J0D01*
G01*
X236220000Y-99060000D02*
G75*
G03*
X236220000Y-99060000I-10160000J0D01*
G01*
X185115000Y-97745000D02*
X183865000Y-97745000D01*
X181865000Y-97745000D02*
X180615000Y-97745000D01*
X180615000Y-97745000D02*
X180615000Y-118185000D01*
X180615000Y-118185000D02*
X185115000Y-118185000D01*
X185115000Y-118185000D02*
X185115000Y-97745000D01*
X181865000Y-97745000D02*
G75*
G03*
X183865000Y-97745000I1000000J0D01*
G01*
%LPC*%
D13*
X57150000Y-57150000D03*
X57150000Y-59690000D03*
X57150000Y-62230000D03*
X57150000Y-64770000D03*
X57150000Y-67310000D03*
D14*
X63500000Y-92710000D03*
D15*
X78740000Y-92710000D03*
D16*
X231700000Y-59455564D03*
X238200000Y-59455564D03*
X231700000Y-63955564D03*
X238200000Y-63955564D03*
D17*
X161835000Y-115395000D03*
X159295000Y-115395000D03*
X159295000Y-112855000D03*
X156755000Y-115395000D03*
X156755000Y-112855000D03*
X154215000Y-112855000D03*
X151675000Y-115395000D03*
X151675000Y-112855000D03*
X149135000Y-112855000D03*
X146595000Y-115395000D03*
X146595000Y-112855000D03*
X144055000Y-115395000D03*
X141515000Y-115395000D03*
X141515000Y-112855000D03*
X138975000Y-115395000D03*
X138975000Y-112855000D03*
X136435000Y-112855000D03*
X133895000Y-115395000D03*
X131355000Y-115395000D03*
X131355000Y-112855000D03*
X128815000Y-112855000D03*
X126275000Y-115395000D03*
X126275000Y-112855000D03*
X123735000Y-115395000D03*
X121195000Y-115395000D03*
X121195000Y-112855000D03*
X149135000Y-115395000D03*
X123735000Y-112855000D03*
X161835000Y-112855000D03*
X144055000Y-112855000D03*
X154349835Y-115506290D03*
X128815000Y-115395000D03*
X136435000Y-115395000D03*
X118655000Y-115395000D03*
X118655000Y-112855000D03*
X116115000Y-112855000D03*
X113575000Y-115395000D03*
X116115000Y-115395000D03*
D18*
X133895000Y-112855000D03*
X113575000Y-112855000D03*
D16*
X213545564Y-59455564D03*
X207045564Y-59455564D03*
X207045564Y-63955564D03*
X213545564Y-63955564D03*
D13*
X106680000Y-39370000D03*
X106680000Y-41910000D03*
X106680000Y-44450000D03*
X106680000Y-46990000D03*
X106680000Y-49530000D03*
X106680000Y-52070000D03*
X106680000Y-54610000D03*
X106680000Y-57150000D03*
X106680000Y-59690000D03*
X106680000Y-62230000D03*
X106680000Y-64770000D03*
X106680000Y-67310000D03*
X106680000Y-69850000D03*
X106680000Y-72390000D03*
X187960000Y-52070000D03*
X187960000Y-54610000D03*
X187960000Y-57150000D03*
X187960000Y-59690000D03*
X209550000Y-93980000D03*
X209550000Y-96520000D03*
X209550000Y-99060000D03*
X209550000Y-101600000D03*
X209550000Y-104140000D03*
D19*
X179055000Y-99075000D03*
D20*
X179055000Y-101615000D03*
X179055000Y-104155000D03*
X179055000Y-106695000D03*
X179055000Y-109235000D03*
X179055000Y-111775000D03*
X179055000Y-114315000D03*
X179055000Y-116855000D03*
X186675000Y-116855000D03*
X186675000Y-114315000D03*
X186675000Y-111775000D03*
X186675000Y-109235000D03*
X186675000Y-106695000D03*
X186675000Y-104155000D03*
X186675000Y-101615000D03*
X186675000Y-99075000D03*
M02*
