M48
; DRILL file {KiCad (6.0.10)} date Tue May 21 15:48:11 2024
; FORMAT={-:-/ absolute / metric / decimal}
; #@! TF.CreationDate,2024-05-21T15:48:11-04:00
; #@! TF.GenerationSoftware,Kicad,Pcbnew,(6.0.10)
; #@! TF.FileFunction,Plated,1,2,PTH
FMAT,2
METRIC
; #@! TA.AperFunction,Plated,PTH,ViaDrill
T1C0.400
; #@! TA.AperFunction,Plated,PTH,ComponentDrill
T2C0.762
; #@! TA.AperFunction,Plated,PTH,ComponentDrill
T3C0.800
; #@! TA.AperFunction,Plated,PTH,ComponentDrill
T4C1.000
; #@! TA.AperFunction,Plated,PTH,ComponentDrill
T5C1.100
%
G90
G05
T1
X60.96Y-66.04
X64.77Y-69.85
X77.47Y-78.74
X80.01Y-72.39
X81.28Y-86.36
X90.17Y-77.47
X90.17Y-83.82
X96.535Y-101.615
X110.49Y-62.23
X111.76Y-59.69
X116.825Y-101.615
X127.0Y-93.98
X127.0Y-119.38
X132.08Y-104.14
X135.89Y-93.98
X138.43Y-107.95
X140.955Y-101.615
X140.97Y-106.68
X142.24Y-107.95
X143.51Y-104.14
X146.05Y-95.25
X158.75Y-105.41
X162.56Y-107.95
X167.64Y-106.68
X168.91Y-114.3
X168.91Y-121.92
X196.85Y-95.25
T2
X57.15Y-57.15
X57.15Y-59.69
X57.15Y-62.23
X57.15Y-64.77
X57.15Y-67.31
X106.68Y-39.37
X106.68Y-41.91
X106.68Y-44.45
X106.68Y-46.99
X106.68Y-49.53
X106.68Y-52.07
X106.68Y-54.61
X106.68Y-57.15
X106.68Y-59.69
X106.68Y-62.23
X106.68Y-64.77
X106.68Y-67.31
X106.68Y-69.85
X106.68Y-72.39
X187.96Y-52.07
X187.96Y-54.61
X187.96Y-57.15
X187.96Y-59.69
X209.55Y-93.98
X209.55Y-96.52
X209.55Y-99.06
X209.55Y-101.6
X209.55Y-104.14
T3
X63.5Y-92.71
X78.74Y-92.71
X179.055Y-99.075
X179.055Y-101.615
X179.055Y-104.155
X179.055Y-106.695
X179.055Y-109.235
X179.055Y-111.775
X179.055Y-114.315
X179.055Y-116.855
X186.675Y-99.075
X186.675Y-101.615
X186.675Y-104.155
X186.675Y-106.695
X186.675Y-109.235
X186.675Y-111.775
X186.675Y-114.315
X186.675Y-116.855
T4
X113.575Y-112.855
X113.575Y-115.395
X116.115Y-112.855
X116.115Y-115.395
X118.655Y-112.855
X118.655Y-115.395
X121.195Y-112.855
X121.195Y-115.395
X123.735Y-112.855
X123.735Y-115.395
X126.275Y-112.855
X126.275Y-115.395
X128.815Y-112.855
X128.815Y-115.395
X131.355Y-112.855
X131.355Y-115.395
X133.895Y-112.855
X133.895Y-115.395
X136.435Y-112.855
X136.435Y-115.395
X138.975Y-112.855
X138.975Y-115.395
X141.515Y-112.855
X141.515Y-115.395
X144.055Y-112.855
X144.055Y-115.395
X146.595Y-112.855
X146.595Y-115.395
X149.135Y-112.855
X149.135Y-115.395
X151.675Y-112.855
X151.675Y-115.395
X154.215Y-112.855
X154.35Y-115.506
X156.755Y-112.855
X156.755Y-115.395
X159.295Y-112.855
X159.295Y-115.395
X161.835Y-112.855
X161.835Y-115.395
T5
X207.046Y-59.456
X207.046Y-63.956
X213.546Y-59.456
X213.546Y-63.956
X231.7Y-59.456
X231.7Y-63.956
X238.2Y-59.456
X238.2Y-63.956
T0
M30
